<?xml version="1.0" encoding="utf-8"?>
<!-- Generator: Adobe Illustrator 21.0.0, SVG Export Plug-In . SVG Version: 6.00 Build 0)  -->
<svg version="1.1" id="Layer_1" xmlns="http://www.w3.org/2000/svg" xmlns:xlink="http://www.w3.org/1999/xlink" x="0px" y="0px"
	 viewBox="0 0 200 200" style="enable-background:new 0 0 200 200;" xml:space="preserve">
<style type="text/css">
	.st0{fill:none;stroke:#000000;stroke-width:2;stroke-miterlimit:10;}
</style>
<g>
	<g>
		<path d="M175,99.1V177H33V99.1l69.6,54.5l1.2,1l1.2-1L175,99.1 M177,95l-73.2,57L31,95v84h146V95L177,95z"/>
	</g>
	<path class="st0" d="M165,106V40c0-1.7-1.3-3-3-3H43c-1.7,0-3,1.3-3,3v64"/>
	<polygon points="95,95 95,64.1 117.7,79.6 	"/>
	<line class="st0" x1="39.8" y1="86.8" x2="31.5" y2="95.5"/>
	<polyline class="st0" points="120.4,37.1 104,20 87.5,37.2 	"/>
	<line class="st0" x1="176.5" y1="95.5" x2="165.1" y2="83.7"/>
	<circle class="st0" cx="50" cy="46" r="2.5"/>
	<circle class="st0" cx="60" cy="46" r="2.5"/>
	<g>
		<line class="st0" x1="84" y1="113" x2="124" y2="113"/>
	</g>
	<g>
		<line class="st0" x1="84" y1="121" x2="124" y2="121"/>
	</g>
</g>
</svg>
