<?xml version="1.0" encoding="iso-8859-1"?>
<!-- Generator: Adobe Illustrator 21.0.0, SVG Export Plug-In . SVG Version: 6.00 Build 0)  -->
<svg version="1.1" id="Layer_1" xmlns="http://www.w3.org/2000/svg" xmlns:xlink="http://www.w3.org/1999/xlink" x="0px" y="0px"
	 viewBox="0 0 100.353 100.353" style="enable-background:new 0 0 100.353 100.353;" xml:space="preserve">
<path d="M75.887,14.594l-0.449-3.002l-2.112,2.181c-2.91,3.005-9.325,6.354-16.754,10.232c-6.733,3.515-14.366,7.499-21.78,12.398
	c-10.18,6.726-14.646,15.202-13.273,25.19c0.835,6.077,3.852,11.672,8.362,15.64l-6.305,9.216l2.476,1.694l6.211-9.078
	c3.823,2.597,8.205,3.973,12.689,3.973c1.131,0,2.269-0.087,3.404-0.262c12.586-1.939,18.753-13.334,19.524-14.855
	c6.648-10.9,8.471-24.818,8.828-34.581C77.093,22.802,75.937,14.925,75.887,14.594z M24.491,61.186
	c-1.219-8.871,2.691-16.159,11.955-22.279c7.287-4.814,14.846-8.76,21.515-12.242c3.91-2.041,7.41-3.871,10.352-5.602L31.589,74.739
	C27.766,71.261,25.211,66.428,24.491,61.186z M65.29,66.407l-0.078,0.143c-0.59,1.176-6.087,11.533-17.313,13.263
	c-4.875,0.75-9.783-0.408-13.939-3.227l39.387-57.569C74.119,28.09,74.866,50.757,65.29,66.407z"/>
</svg>
