<?xml version="1.0" encoding="iso-8859-1"?>
<!-- Generator: Adobe Illustrator 21.0.0, SVG Export Plug-In . SVG Version: 6.00 Build 0)  -->
<svg version="1.1" id="Layer_1" xmlns="http://www.w3.org/2000/svg" xmlns:xlink="http://www.w3.org/1999/xlink" x="0px" y="0px"
	 viewBox="0 0 100 100" style="enable-background:new 0 0 100 100;" xml:space="preserve">
<g>
	<g>
		
			<ellipse style="fill:none;stroke:#FFFFFF;stroke-width:5.7902;stroke-linecap:round;stroke-linejoin:round;stroke-miterlimit:10;" cx="33.021" cy="18.346" rx="28.021" ry="11.346"/>
		
			<path style="fill:none;stroke:#FFFFFF;stroke-width:5.7902;stroke-linecap:round;stroke-linejoin:round;stroke-miterlimit:10;" d="
			M47.575,45.234c-4.241,1.048-9.223,1.649-14.554,1.649C17.543,46.883,5,41.803,5,35.537"/>
		
			<line style="fill:none;stroke:#FFFFFF;stroke-width:5.7902;stroke-linecap:round;stroke-linejoin:round;stroke-miterlimit:10;" x1="61.043" y1="18.345" x2="61.043" y2="30.126"/>
		
			<line style="fill:none;stroke:#FFFFFF;stroke-width:5.7902;stroke-linecap:round;stroke-linejoin:round;stroke-miterlimit:10;" x1="5" y1="18.345" x2="5" y2="35.021"/>
	</g>
	<g>
		
			<path style="fill:none;stroke:#FFFFFF;stroke-width:5.7902;stroke-linecap:round;stroke-linejoin:round;stroke-miterlimit:10;" d="
			M51.344,61.805c-4.97,1.821-11.088,2.957-18.323,2.957C17.543,64.762,5,59.682,5,53.417"/>
		
			<path style="fill:none;stroke:#FFFFFF;stroke-width:5.7902;stroke-linecap:round;stroke-linejoin:round;stroke-miterlimit:10;" d="
			M61.043,52.9"/>
		
			<line style="fill:none;stroke:#FFFFFF;stroke-width:5.7902;stroke-linecap:round;stroke-linejoin:round;stroke-miterlimit:10;" x1="5" y1="36.224" x2="5" y2="52.9"/>
	</g>
	<g>
		
			<path style="fill:none;stroke:#FFFFFF;stroke-width:5.7902;stroke-linecap:round;stroke-linejoin:round;stroke-miterlimit:10;" d="
			M58.839,75.885c-4.252,4.072-14.212,6.929-25.818,6.929C17.543,82.814,5,77.734,5,71.467"/>
		
			<line style="fill:none;stroke:#FFFFFF;stroke-width:5.7902;stroke-linecap:round;stroke-linejoin:round;stroke-miterlimit:10;" x1="5" y1="54.276" x2="5" y2="70.951"/>
	</g>
	<g>
		
			<path style="fill:none;stroke:#FFFFFF;stroke-width:5.7902;stroke-linecap:round;stroke-linejoin:round;stroke-miterlimit:10;" d="
			M67.267,27.397l-15.229,6.799l-0.472,0.209c-5.718,2.556-5.243,16.083,1.067,30.214s16.062,23.515,21.785,20.961l0.468-0.209
			l15.229-6.799"/>
		
			<ellipse transform="matrix(0.9131 -0.4077 0.4077 0.9131 -14.7646 36.6833)" style="fill:none;stroke:#FFFFFF;stroke-width:5.7902;stroke-linecap:round;stroke-linejoin:round;stroke-miterlimit:10;" cx="78.691" cy="52.985" rx="11.346" ry="28.022"/>
	</g>
</g>
</svg>
