<?xml version="1.0" encoding="iso-8859-1"?>
<!-- Generator: Adobe Illustrator 21.0.0, SVG Export Plug-In . SVG Version: 6.00 Build 0)  -->
<svg version="1.1" id="Layer_1" xmlns="http://www.w3.org/2000/svg" xmlns:xlink="http://www.w3.org/1999/xlink" x="0px" y="0px"
	 viewBox="0 0 100.354 100.352" style="enable-background:new 0 0 100.354 100.352;" xml:space="preserve">
<g>
	<path d="M49.826,10.137c-22.703,0-41.174,18.471-41.174,41.174s18.471,41.174,41.174,41.174S91,74.014,91,51.311
		S72.529,10.137,49.826,10.137z M49.826,89.484c-21.049,0-38.174-17.125-38.174-38.174s17.125-38.174,38.174-38.174
		S88,30.261,88,51.31S70.875,89.484,49.826,89.484z"/>
	<path d="M40.929,39.351l2.858-0.911c-1.401-4.393-5.448-7.344-10.071-7.344c-4.621,0-8.667,2.947-10.069,7.334l2.857,0.913
		c1.003-3.138,3.901-5.247,7.212-5.247C37.028,34.096,39.926,36.207,40.929,39.351z"/>
	<path d="M65.934,31.096c-4.621,0-8.667,2.947-10.07,7.334l2.857,0.913c1.003-3.138,3.902-5.247,7.212-5.247
		c3.304,0,6.203,2.113,7.213,5.258l2.856-0.918C74.593,34.045,70.546,31.096,65.934,31.096z"/>
	<path d="M50.078,64.834c-8.035,0-14.572-6.538-14.572-14.574h-3c0,9.69,7.883,17.574,17.572,17.574
		c9.691,0,17.576-7.883,17.576-17.574h-3C64.653,58.297,58.115,64.834,50.078,64.834z"/>
</g>
</svg>
